<svg width="151" height="36" viewBox="0 0 151 36" fill="none" xmlns="http://www.w3.org/2000/svg">
<path d="M18.6078 8.62861C17.1312 11.1693 15.6759 13.7301 14.2238 16.2868H14.2197H14.2017H14.1837H14.1656H14.1476H14.1296H14.1116H14.0935H14.0755H14.0575H14.0395H14.0215H14.0034H13.9854H13.9674H13.9494H13.9313H13.9133H13.8953H13.8773H13.8593H13.8412H13.8232H13.8052H13.7872H13.7691H13.7511H13.7331H13.7151H13.697H13.679H13.661H13.643H13.625H13.6069H13.5889H13.5709H13.5529H13.5348H13.5168H13.4988H13.4808H13.4628H13.4447H13.4267H13.4087H13.3907H13.3726H13.3546H13.3366H13.3186H13.3006H13.2825H13.2645H13.2465H13.2285H13.2104H13.1924H13.1744H13.1564H13.1384H13.1203H13.1023H13.0843H13.0663H13.0482H13.0302H13.0122H12.9942H12.9761H12.9581H12.9401H12.9221H12.9041H12.886H12.868H12.85H12.832H12.8139H12.7959H12.7779H12.7599H12.7419H12.7238H12.7058H12.6878H12.6698H12.6517H12.6337H12.6157H12.5977H12.5797H12.5616H12.5436H12.5256H12.5076H12.4895H12.4715H12.4535H12.4355H12.4175H12.3994H12.3814H12.3634H12.3454H12.3273H12.3093H12.2913H12.2733H12.2552H12.2372H12.2192H12.2012H12.1832H12.1651H12.1471H12.1291H12.1111H12.093H12.075H12.057H12.039H12.021H12.0029H11.9849H11.9669H11.9489H11.9308H11.9128H11.8948H11.8768H11.8588H11.8407H11.8227H11.8047H11.7867H11.7686H11.7506H11.7326H11.7146H11.6966H11.6785H11.6605H11.6425H11.6245H11.6064H11.5884H11.5704H11.5524H11.5343H11.5163H11.4983H11.4803H11.4623H11.4442H11.4262H11.4082H11.3902H11.3721H11.3541H11.3361H11.3181H11.3001H11.282H11.264H11.246H11.228H11.2099H11.1919H11.1739H11.1559H11.1379H11.1198H11.1018H11.0838H11.0658H11.0477H11.0297H11.0117H10.9937H10.9757H10.9576H10.9396H10.9216H10.9036H10.8855H10.8675H10.8495H10.8315H10.8134H10.7954H10.7774H10.7594H10.7414H10.7233H10.7053H10.6873H10.6693H10.6512H10.6332H10.6152H10.5972H10.5792H10.5611H10.5431H10.5251H10.5071H10.489H10.471H10.453H10.435H10.417H10.3989H10.3809H10.3629H10.3449H10.3268H10.3088H10.2908H10.2728H10.2548H10.2367H10.2187H10.2007H10.1827H10.1646H10.1466H10.1286H10.1106H10.0926H10.0745H10.0565H10.0385H10.0205H10.0024H9.98442H9.96639H9.94837H9.93035H9.91233H9.8943H9.87628H9.85826H9.84024H9.82221H9.80419H9.78617H9.76815H9.75012H9.7321H9.71408H9.69606H9.67803H9.66001H9.64199H9.62397H9.60594H9.58792H9.5699H9.55188H9.53385H9.51583H9.49781H9.47979H9.46176H9.44374H9.42572H9.4077H9.38967H9.37165H9.35363H9.33561H9.31758H9.29956H9.28154H9.26352H9.24549H9.22747H9.20945H9.19143H9.1734H9.15538H9.13736H9.11934H9.10131H9.08329H9.06527H9.04725H9.02922H9.0112H8.99318H8.97516H8.95713H8.93911H8.92109H8.90307H8.88504H8.86702H8.849H8.83098H8.81295H8.79493H8.77691H8.75889H8.74086H8.72284H8.70482H8.6868H8.66877H8.65075H8.63273H8.61471H8.59668H8.57866H8.56064H8.54262H8.52459H8.50657H8.48855H8.47053H8.4525H8.43448H8.41646H8.39844H8.38041H8.36239H8.34437H8.32635H8.30832H8.2903H8.27228H8.25426H8.23623H8.21821H8.20019H8.18217H8.16414H8.14612H8.1281H8.11008H8.09205H8.07403H8.05601H8.03799H8.01996H8.00194H7.98392H7.9659H7.94787H7.92985H7.91183H7.89381H7.87578H7.85776H7.83974H7.82172H7.80369H7.78567H7.76765H7.74963H7.7316H7.71358H7.69556H7.67754H7.65951H7.64149H7.62347H7.60545H7.58742H7.5694H7.55138H7.53336H7.51534H7.49731H7.47929H7.46127H7.44324H7.42522H7.4072H7.38918H7.37116H7.35313H7.33511H7.31709H7.29907H7.28104H7.26302H7.245H7.22697H7.20895H7.19093H7.17291H7.15489H7.13686H7.11884H7.10082H7.0828H7.06477H7.04675H7.02873H7.01071H6.99268H6.97466H6.95664H6.93862H6.92059H6.90257H6.88455H6.86653H6.8485H6.83048H6.81246H6.79444H6.77641H6.75839H6.74037H6.72235H6.70432H6.6863H6.66828H6.65026H6.63223H6.61421H6.59619H6.57817H6.56014H6.54212H6.5241H6.50608H6.48805H6.47003H6.45201H6.43399H6.41596H6.39794H6.37992H6.3619H6.34387H6.32585H6.30783H6.28981H6.27178H6.25376H6.23574H6.21772H6.19969H6.18167H6.16365H6.14563H6.1276H6.10958H6.09156H6.07354H6.05551H6.03749H6.01947H6.00145H5.98342H5.9654H5.94738H5.92936H5.91133H5.89331H5.87529H5.85727H5.83924H5.82122H5.8032H5.78518H5.76715H5.74913H5.73111H5.71309H5.69506H5.67704H5.65902H5.641H5.62297H5.60495H5.58693H5.56891H5.55088H5.53286H5.51499C4.06348 13.7334 2.59156 11.1805 1.12072 8.63057C1.58775 7.81599 2.05534 7.00249 2.52325 6.18845C3.51249 4.4674 4.50312 2.74393 5.49284 1.00277C6.44728 1.01545 7.40833 1.01035 8.35835 1.00531C8.86026 1.00265 9.35909 1 9.85225 1H9.86126H9.87027H9.87928H9.8883H9.89731H9.90632H9.91533H9.92434H9.93335H9.94236H9.95138H9.96039H9.9694H9.97841H9.98742H9.99643H10.0054H10.0145H10.0235H10.0325H10.0415H10.0505H10.0595H10.0685H10.0775H10.0865H10.0956H10.1046H10.1136H10.1226H10.1316H10.1406H10.1496H10.1586H10.1677H10.1767H10.1857H10.1947H10.2037H10.2127H10.2217H10.2307H10.2397H10.2488H10.2578H10.2668H10.2758H10.2848H10.2938H10.3028H10.3118H10.3209H10.3299H10.3389H10.3479H10.3569H10.3659H10.3749H10.384H10.393H10.402H10.411H10.42H10.429H10.438H10.447H10.4561H10.4651H10.4741H10.4831H10.4921H10.5011H10.5101H10.5192H10.5282H10.5372H10.5462H10.5552H10.5642H10.5732H10.5823H10.5913H10.6003H10.6093H10.6183H10.6273H10.6363H10.6454H10.6544H10.6634H10.6724H10.6814H10.6904H10.6995H10.7085H10.7175H10.7265H10.7355H10.7445H10.7536H10.7626H10.7716H10.7806H10.7896H10.7986H10.8077H10.8167H10.8257H10.8347H10.8437H10.8527H10.8618H10.8708H10.8798H10.8888H10.8978H10.9069H10.9159H10.9249H10.9339H10.9429H10.9519H10.961H10.97H10.979H10.988H10.997H11.0061H11.0151H11.0241H11.0331H11.0421H11.0512H11.0602H11.0692H11.0782H11.0873H11.0963H11.1053H11.1143H11.1233H11.1324H11.1414H11.1504H11.1594H11.1685H11.1775H11.1865H11.1955H11.2045H11.2136H11.2226H11.2316H11.2406H11.2497H11.2587H11.2677H11.2767H11.2858H11.2948H11.3038H11.3128H11.3219H11.3309H11.3399H11.3489H11.358H11.367H11.376H11.385H11.3941H11.4031H11.4121H11.4212H11.4302H11.4392H11.4482H11.4573H11.4663H11.4753H11.4843H11.4934H11.5024H11.5114H11.5205H11.5295H11.5385H11.5476H11.5566H11.5656H11.5746H11.5837H11.5927H11.6017H11.6108H11.6198H11.6288H11.6379H11.6469H11.6559H11.665H11.674H11.683H11.6921H11.7011H11.7101H11.7192H11.7282H11.7372H11.7463H11.7553H11.7643H11.7734H11.7824H11.7914H11.8005H11.8095H11.8186H11.8276H11.8366H11.8457H11.8547H11.8637H11.8728H11.8818H11.8909H11.8999H11.9089H11.918H11.927H11.9361H11.9451H11.9541H11.9632H11.9722H11.9813H11.9903H11.9993H12.0084H12.0174H12.0265H12.0355H12.0446H12.0536H12.0626H12.0717H12.0807H12.0898H12.0988H12.1079H12.1169H12.1259H12.135H12.144H12.1531H12.1621H12.1712H12.1802H12.1893H12.1983H12.2074H12.2164H12.2255H12.2345H12.2436H12.2526H12.2617H12.2707H12.2798H12.2888H12.2979H12.3069H12.316H12.325H12.3341H12.3431H12.3522H12.3612H12.3703H12.3793H12.3884H12.3974H12.4065H12.4155H12.4246H12.4337H12.4427H12.4518H12.4608H12.4699H12.4789H12.488H12.497H12.5061H12.5152H12.5242H12.5333H12.5423H12.5514H12.5605H12.5695H12.5786H12.5876H12.5967H12.6058H12.6148H12.6239H12.6329H12.642H12.6511H12.6601H12.6692H12.6783H12.6873H12.6964H12.7055H12.7145H12.7236H12.7326H12.7417H12.7508H12.7598H12.7689H12.778H12.7871H12.7961H12.8052H12.8143H12.8233H12.8324H12.8415H12.8505H12.8596H12.8687H12.8777H12.8868H12.8959H12.905H12.914H12.9231H12.9322H12.9413H12.9503H12.9594H12.9685H12.9776H12.9866H12.9957H13.0048H13.0139H13.0229H13.032H13.0411H13.0502H13.0593H13.0683H13.0774H13.0865H13.0956H13.1047H13.1137H13.1228H13.1319H13.141H13.1501H13.1591H13.1682H13.1773H13.1864H13.1955H13.2046H13.2137H13.2227H13.2318H13.2409H13.25H13.2591H13.2682H13.2773H13.2863H13.2954H13.3045H13.3136H13.3227H13.3318H13.3409H13.35H13.3591H13.3682H13.3773H13.3863H13.3954H13.4045H13.4136H13.4227H13.4318H13.4409H13.45H13.4591H13.4682H13.4773H13.4864H13.4955H13.5046H13.5137H13.5228H13.5319H13.541H13.5501H13.5592H13.5683H13.5774H13.5865H13.5956H13.6047H13.6138H13.6229H13.632H13.6411H13.6502H13.6593H13.6685H13.6776H13.6867H13.6958H13.7049H13.714H13.7231H13.7322H13.7413H13.7504H13.7595H13.7687H13.7778H13.7869H13.796H13.8051H13.8142H13.8233H13.8324H13.8416H13.8507H13.8598H13.8689H13.878H13.8871H13.8963H13.9054H13.9145H13.9236H13.9327H13.9419H13.951H13.9601H13.9692H13.9784H13.9875H13.9966H14.0057H14.0148H14.024H14.0331H14.0422H14.0514H14.0605H14.0696H14.0787H14.0879H14.097H14.1061H14.1153H14.1244H14.1335H14.1426H14.1518H14.1609H14.17H14.1792H14.1883H14.1974H14.2066H14.2157H14.2249H14.234H14.2376C14.963 2.27544 15.6932 3.54539 16.422 4.81298L16.4226 4.81409C17.1537 6.08564 17.8834 7.35482 18.6078 8.62861ZM5.28351 1.00087C5.28348 1.00085 5.2845 1.00073 5.28666 1.00059L5.28351 1.00087ZM5.23829 16.286C5.2384 16.2859 5.24121 16.286 5.24633 16.2865C5.24074 16.2863 5.23818 16.2861 5.23829 16.286ZM14.0909 16.5207C14.0909 16.5206 14.0915 16.5196 14.0927 16.5178C14.0915 16.5198 14.0909 16.5207 14.0909 16.5207Z" stroke="#2EB67D" stroke-width="2"/>
<path d="M14.1989 19.7374H14.2009C15.6598 22.2832 17.1211 24.8321 18.6037 27.3814C17.1364 29.9187 15.668 32.4591 14.2206 35H14.2034H14.1855H14.1676H14.1498H14.1319H14.114H14.0961H14.0782H14.0604H14.0425H14.0246H14.0067H13.9888H13.9709H13.9531H13.9352H13.9173H13.8994H13.8815H13.8637H13.8458H13.8279H13.81H13.7921H13.7742H13.7564H13.7385H13.7206H13.7027H13.6848H13.667H13.6491H13.6312H13.6133H13.5954H13.5776H13.5597H13.5418H13.5239H13.506H13.4881H13.4703H13.4524H13.4345H13.4166H13.3987H13.3809H13.363H13.3451H13.3272H13.3093H13.2914H13.2736H13.2557H13.2378H13.2199H13.202H13.1842H13.1663H13.1484H13.1305H13.1126H13.0947H13.0769H13.059H13.0411H13.0232H13.0053H12.9875H12.9696H12.9517H12.9338H12.9159H12.898H12.8802H12.8623H12.8444H12.8265H12.8086H12.7908H12.7729H12.755H12.7371H12.7192H12.7013H12.6835H12.6656H12.6477H12.6298H12.6119H12.5941H12.5762H12.5583H12.5404H12.5225H12.5046H12.4868H12.4689H12.451H12.4331H12.4152H12.3974H12.3795H12.3616H12.3437H12.3258H12.308H12.2901H12.2722H12.2543H12.2364H12.2185H12.2007H12.1828H12.1649H12.147H12.1291H12.1113H12.0934H12.0755H12.0576H12.0397H12.0218H12.004H11.9861H11.9682H11.9503H11.9324H11.9146H11.8967H11.8788H11.8609H11.843H11.8251H11.8073H11.7894H11.7715H11.7536H11.7357H11.7179H11.7H11.6821H11.6642H11.6463H11.6284H11.6106H11.5927H11.5748H11.5569H11.539H11.5212H11.5033H11.4854H11.4675H11.4496H11.4317H11.4139H11.396H11.3781H11.3602H11.3423H11.3245H11.3066H11.2887H11.2708H11.2529H11.2351H11.2172H11.1993H11.1814H11.1635H11.1456H11.1278H11.1099H11.092H11.0741H11.0562H11.0384H11.0205H11.0026H10.9847H10.9668H10.9489H10.9311H10.9132H10.8953H10.8774H10.8595H10.8417H10.8238H10.8059H10.788H10.7701H10.7522H10.7344H10.7165H10.6986H10.6807H10.6628H10.645H10.6271H10.6092H10.5913H10.5734H10.5555H10.5377H10.5198H10.5019H10.484H10.4661H10.4483H10.4304H10.4125H10.3946H10.3767H10.3588H10.341H10.3231H10.3052H10.2873H10.2694H10.2516H10.2337H10.2158H10.1979H10.18H10.1621H10.1443H10.1264H10.1085H10.0906H10.0727H10.0549H10.037H10.0191H10.0012H9.98333H9.96545H9.94757H9.92969H9.91181H9.89392H9.87604H9.85816H9.84028H9.8224H9.80451H9.78663H9.76875H9.75087H9.73299H9.71511H9.69722H9.67934H9.66146H9.64358H9.6257H9.60782H9.58994H9.57205H9.55417H9.53629H9.51841H9.50053H9.48265H9.46476H9.44688H9.429H9.41112H9.39324H9.37535H9.35747H9.33959H9.32171H9.30383H9.28595H9.26806H9.25018H9.2323H9.21442H9.19654H9.17866H9.16077H9.14289H9.12501H9.10713H9.08925H9.07137H9.05348H9.0356H9.01772H8.99984H8.98196H8.96408H8.94619H8.92831H8.91043H8.89255H8.87467H8.85679H8.8389H8.82102H8.80314H8.78526H8.76738H8.7495H8.73161H8.71373H8.69585H8.67797H8.66009H8.64221H8.62432H8.60644H8.58856H8.57068H8.5528H8.53491H8.51703H8.49915H8.48127H8.46339H8.44551H8.42763H8.40974H8.39186H8.37398H8.3561H8.33822H8.32034H8.30245H8.28457H8.26669H8.24881H8.23093H8.21305H8.19516H8.17728H8.1594H8.14152H8.12364H8.10575H8.08787H8.06999H8.05211H8.03423H8.01635H7.99847H7.98058H7.9627H7.94482H7.92694H7.90906H7.89117H7.87329H7.85541H7.83753H7.81965H7.80177H7.78388H7.766H7.74812H7.73024H7.71236H7.69448H7.67659H7.65871H7.64083H7.62295H7.60507H7.58719H7.5693H7.55142H7.53354H7.51566H7.49778H7.4799H7.46201H7.44413H7.42625H7.40837H7.39049H7.37261H7.35472H7.33684H7.31896H7.30108H7.2832H7.26532H7.24743H7.22955H7.21167H7.19379H7.17591H7.15803H7.14014H7.12226H7.10438H7.0865H7.06862H7.05074H7.03285H7.01497H6.99709H6.97921H6.96133H6.94345H6.92556H6.90768H6.8898H6.87192H6.85404H6.83615H6.81827H6.80039H6.78251H6.76463H6.74675H6.72887H6.71098H6.6931H6.67522H6.65734H6.63946H6.62157H6.60369H6.58581H6.56793H6.55005H6.53217H6.51428H6.4964H6.47852H6.46064H6.44276H6.42488H6.40699H6.38911H6.37123H6.35335H6.33547H6.31759H6.2997H6.28182H6.26394H6.24606H6.22818H6.2103H6.19241H6.17453H6.15665H6.13877H6.12089H6.10301H6.08512H6.06724H6.04936H6.03148H6.0136H5.99572H5.97783H5.95995H5.94207H5.92419H5.90631H5.88843H5.87054H5.85266H5.83478H5.8169H5.79902H5.78114H5.76325H5.74537H5.72749H5.70961H5.69173H5.67385H5.65596H5.63808H5.6202H5.60232H5.58444H5.56656H5.54867H5.53079H5.51291H5.49503H5.47715H5.47044C4.01723 32.4424 2.563 29.9049 1.08768 27.3676C2.55025 24.8305 4.01202 22.2739 5.45327 19.7374H5.45951H5.46878H5.47804H5.4873H5.49655H5.50581H5.51507H5.52432H5.53358H5.54283H5.55208H5.56133H5.57058H5.57983H5.58908H5.59833H5.60757H5.61682H5.62606H5.6353H5.64455H5.65379H5.66303H5.67227H5.68151H5.69074H5.69998H5.70921H5.71845H5.72768H5.73691H5.74614H5.75537H5.7646H5.77383H5.78306H5.79229H5.80151H5.81074H5.81996H5.82918H5.8384H5.84762H5.85684H5.86606H5.87528H5.8845H5.89371H5.90293H5.91214H5.92135H5.93057H5.93978H5.94899H5.9582H5.96741H5.97661H5.98582H5.99503H6.00423H6.01343H6.02264H6.03184H6.04104H6.05024H6.05944H6.06864H6.07784H6.08703H6.09623H6.10542H6.11462H6.12381H6.133H6.1422H6.15139H6.16058H6.16976H6.17895H6.18814H6.19733H6.20651H6.21569H6.22488H6.23406H6.24324H6.25242H6.2616H6.27078H6.27996H6.28914H6.29832H6.30749H6.31667H6.32584H6.33501H6.34419H6.35336H6.36253H6.3717H6.38087H6.39004H6.39921H6.40837H6.41754H6.4267H6.43587H6.44503H6.45419H6.46336H6.47252H6.48168H6.49084H6.5H6.50915H6.51831H6.52747H6.53662H6.54578H6.55493H6.56408H6.57324H6.58239H6.59154H6.60069H6.60984H6.61899H6.62813H6.63728H6.64643H6.65557H6.66472H6.67386H6.683H6.69215H6.70129H6.71043H6.71957H6.72871H6.73785H6.74699H6.75612H6.76526H6.7744H6.78353H6.79267H6.8018H6.81093H6.82006H6.8292H6.83833H6.84746H6.85659H6.86571H6.87484H6.88397H6.8931H6.90222H6.91135H6.92047H6.92959H6.93872H6.94784H6.95696H6.96608H6.9752H6.98432H6.99344H7.00256H7.01168H7.02079H7.02991H7.03902H7.04814H7.05725H7.06637H7.07548H7.08459H7.0937H7.10281H7.11193H7.12103H7.13014H7.13925H7.14836H7.15747H7.16657H7.17568H7.18478H7.19389H7.20299H7.21209H7.2212H7.2303H7.2394H7.2485H7.2576H7.2667H7.2758H7.2849H7.29399H7.30309H7.31219H7.32128H7.33038H7.33947H7.34857H7.35766H7.36675H7.37585H7.38494H7.39403H7.40312H7.41221H7.4213H7.43039H7.43948H7.44856H7.45765H7.46674H7.47582H7.48491H7.49399H7.50308H7.51216H7.52124H7.53032H7.53941H7.54849H7.55757H7.56665H7.57573H7.58481H7.59389H7.60296H7.61204H7.62112H7.6302H7.63927H7.64835H7.65742H7.6665H7.67557H7.68464H7.69372H7.70279H7.71186H7.72093H7.73H7.73907H7.74814H7.75721H7.76628H7.77535H7.78442H7.79349H7.80255H7.81162H7.82068H7.82975H7.83881H7.84788H7.85694H7.86601H7.87507H7.88413H7.89319H7.90226H7.91132H7.92038H7.92944H7.9385H7.94756H7.95662H7.96567H7.97473H7.98379H7.99285H8.0019H8.01096H8.02001H8.02907H8.03813H8.04718H8.05623H8.06529H8.07434H8.08339H8.09245H8.1015H8.11055H8.1196H8.12865H8.1377H8.14675H8.1558H8.16485H8.1739H8.18295H8.19199H8.20104H8.21009H8.21913H8.22818H8.23723H8.24627H8.25532H8.26436H8.27341H8.28245H8.29149H8.30054H8.30958H8.31862H8.32766H8.33671H8.34575H8.35479H8.36383H8.37287H8.38191H8.39095H8.39999H8.40903H8.41807H8.4271H8.43614H8.44518H8.45422H8.46325H8.47229H8.48133H8.49036H8.4994H8.50843H8.51747H8.5265H8.53554H8.54457H8.55361H8.56264H8.57167H8.5807H8.58974H8.59877H8.6078H8.61683H8.62586H8.63489H8.64392H8.65296H8.66199H8.67101H8.68004H8.68907H8.6981H8.70713H8.71616H8.72519H8.73422H8.74324H8.75227H8.7613H8.77032H8.77935H8.78838H8.7974H8.80643H8.81546H8.82448H8.83351H8.84253H8.85155H8.86058H8.8696H8.87863H8.88765H8.89668H8.9057H8.91472H8.92374H8.93277H8.94179H8.95081H8.95983H8.96885H8.97788H8.9869H8.99592H9.00494H9.01396H9.02298H9.032H9.04102H9.05004H9.05906H9.06808H9.0771H9.08612H9.09514H9.10415H9.11317H9.12219H9.13121H9.14023H9.14925H9.15826H9.16728H9.1763H9.18532H9.19433H9.20335H9.21237H9.22138H9.2304H9.23942H9.24843H9.25745H9.26646H9.27548H9.2845H9.29351H9.30253H9.31154H9.32056H9.32957H9.33859H9.3476H9.35662H9.36563H9.37464H9.38366H9.39267H9.40169H9.4107H9.41971H9.42873H9.43774H9.44675H9.45577H9.46478H9.47379H9.48281H9.49182H9.50083H9.50985H9.51886H9.52787H9.53688H9.5459H9.55491H9.56392H9.57293H9.58195H9.59096H9.59997H9.60898H9.61799H9.62701H9.63602H9.64503H9.65404H9.66305H9.67207H9.68108H9.69009H9.6991H9.70811H9.71712H9.72613H9.73515H9.74416H9.75317H9.76218H9.77119H9.7802H9.78921H9.79823H9.80724H9.81625H9.82526H9.83427H9.84328H9.85229H9.8613H9.87031H9.87932H9.88833H9.89734H9.90635H9.91536H9.92437H9.93337H9.94238H9.95138H9.96039H9.96939H9.9784H9.9874H9.9964H10.0054H10.0144H10.0234H10.0324H10.0414H10.0504H10.0594H10.0684H10.0774H10.0864H10.0954H10.1044H10.1134H10.1224H10.1314H10.1404H10.1494H10.1584H10.1674H10.1764H10.1854H10.1943H10.2033H10.2123H10.2213H10.2303H10.2393H10.2483H10.2573H10.2663H10.2753H10.2842H10.2932H10.3022H10.3112H10.3202H10.3292H10.3382H10.3471H10.3561H10.3651H10.3741H10.3831H10.3921H10.401H10.41H10.419H10.428H10.437H10.4459H10.4549H10.4639H10.4729H10.4819H10.4908H10.4998H10.5088H10.5178H10.5267H10.5357H10.5447H10.5537H10.5626H10.5716H10.5806H10.5896H10.5985H10.6075H10.6165H10.6255H10.6344H10.6434H10.6524H10.6613H10.6703H10.6793H10.6882H10.6972H10.7062H10.7152H10.7241H10.7331H10.7421H10.751H10.76H10.769H10.7779H10.7869H10.7959H10.8048H10.8138H10.8228H10.8317H10.8407H10.8496H10.8586H10.8676H10.8765H10.8855H10.8945H10.9034H10.9124H10.9213H10.9303H10.9393H10.9482H10.9572H10.9661H10.9751H10.9841H10.993H11.002H11.0109H11.0199H11.0289H11.0378H11.0468H11.0557H11.0647H11.0736H11.0826H11.0915H11.1005H11.1095H11.1184H11.1274H11.1363H11.1453H11.1542H11.1632H11.1721H11.1811H11.19H11.199H11.208H11.2169H11.2259H11.2348H11.2438H11.2527H11.2617H11.2706H11.2796H11.2885H11.2975H11.3064H11.3154H11.3243H11.3333H11.3422H11.3512H11.3601H11.3691H11.378H11.387H11.3959H11.4049H11.4138H11.4228H11.4317H11.4407H11.4496H11.4585H11.4675H11.4764H11.4854H11.4943H11.5033H11.5122H11.5212H11.5301H11.5391H11.548H11.557H11.5659H11.5748H11.5838H11.5927H11.6017H11.6106H11.6196H11.6285H11.6375H11.6464H11.6554H11.6643H11.6732H11.6822H11.6911H11.7001H11.709H11.718H11.7269H11.7358H11.7448H11.7537H11.7627H11.7716H11.7806H11.7895H11.7984H11.8074H11.8163H11.8253H11.8342H11.8432H11.8521H11.861H11.87H11.8789H11.8879H11.8968H11.9057H11.9147H11.9236H11.9326H11.9415H11.9505H11.9594H11.9683H11.9773H11.9862H11.9952H12.0041H12.013H12.022H12.0309H12.0399H12.0488H12.0577H12.0667H12.0756H12.0846H12.0935H12.1025H12.1114H12.1203H12.1293H12.1382H12.1472H12.1561H12.165H12.174H12.1829H12.1919H12.2008H12.2097H12.2187H12.2276H12.2366H12.2455H12.2544H12.2634H12.2723H12.2813H12.2902H12.2992H12.3081H12.317H12.326H12.3349H12.3439H12.3528H12.3617H12.3707H12.3796H12.3886H12.3975H12.4064H12.4154H12.4243H12.4333H12.4422H12.4512H12.4601H12.469H12.478H12.4869H12.4959H12.5048H12.5138H12.5227H12.5316H12.5406H12.5495H12.5585H12.5674H12.5764H12.5853H12.5942H12.6032H12.6121H12.6211H12.63H12.639H12.6479H12.6569H12.6658H12.6747H12.6837H12.6926H12.7016H12.7105H12.7195H12.7284H12.7374H12.7463H12.7552H12.7642H12.7731H12.7821H12.791H12.8H12.8089H12.8179H12.8268H12.8358H12.8447H12.8537H12.8626H12.8716H12.8805H12.8895H12.8984H12.9073H12.9163H12.9252H12.9342H12.9431H12.9521H12.961H12.97H12.9789H12.9879H12.9968H13.0058H13.0147H13.0237H13.0326H13.0416H13.0506H13.0595H13.0685H13.0774H13.0864H13.0953H13.1043H13.1132H13.1222H13.1311H13.1401H13.149H13.158H13.1669H13.1759H13.1849H13.1938H13.2028H13.2117H13.2207H13.2296H13.2386H13.2475H13.2565H13.2655H13.2744H13.2834H13.2923H13.3013H13.3103H13.3192H13.3282H13.3371H13.3461H13.3551H13.364H13.373H13.3819H13.3909H13.3999H13.4088H13.4178H13.4267H13.4357H13.4447H13.4536H13.4626H13.4716H13.4805H13.4895H13.4985H13.5074H13.5164H13.5254H13.5343H13.5433H13.5523H13.5612H13.5702H13.5792H13.5881H13.5971H13.6061H13.615H13.624H13.633H13.6419H13.6509H13.6599H13.6689H13.6778H13.6868H13.6958H13.7047H13.7137H13.7227H13.7317H13.7406H13.7496H13.7586H13.7676H13.7765H13.7855H13.7945H13.8035H13.8125H13.8214H13.8304H13.8394H13.8484H13.8574H13.8663H13.8753H13.8843H13.8933H13.9023H13.9112H13.9202H13.9292H13.9382H13.9472H13.9562H13.9651H13.9741H13.9831H13.9921H14.0011H14.0101H14.0191H14.028H14.037H14.046H14.055H14.064H14.073H14.082H14.091H14.1H14.109H14.118H14.1269H14.1359H14.1449H14.1539H14.1629H14.1719H14.1809H14.1899H14.1989ZM14.124 35.1679C14.124 35.1678 14.1244 35.1672 14.1253 35.166C14.1245 35.1673 14.124 35.1679 14.124 35.1679ZM5.24942 34.9997C5.24944 34.9997 5.25013 34.9997 5.25144 34.9998L5.24942 34.9997ZM5.1787 19.7377C5.17864 19.7377 5.18039 19.7375 5.18415 19.7375C5.18065 19.7377 5.17877 19.7378 5.1787 19.7377ZM14.4446 19.7374C14.4457 19.7374 14.4462 19.7375 14.4462 19.7375L14.4446 19.7374Z" stroke="#F8BD00" stroke-width="2"/>
<path d="M22.042 25.8368H22.0363L17.6779 18.2314C19.1497 15.6991 20.6003 13.1467 22.0477 10.5984H22.0655H22.0835H22.1015H22.1195H22.1376H22.1556H22.1736H22.1916H22.2096H22.2277H22.2457H22.2637H22.2817H22.2998H22.3178H22.3358H22.3538H22.3719H22.3899H22.4079H22.4259H22.4439H22.462H22.48H22.498H22.516H22.5341H22.5521H22.5701H22.5881H22.6061H22.6242H22.6422H22.6602H22.6782H22.6963H22.7143H22.7323H22.7503H22.7683H22.7864H22.8044H22.8224H22.8404H22.8585H22.8765H22.8945H22.9125H22.9305H22.9486H22.9666H22.9846H23.0026H23.0207H23.0387H23.0567H23.0747H23.0928H23.1108H23.1288H23.1468H23.1648H23.1829H23.2009H23.2189H23.2369H23.255H23.273H23.291H23.309H23.327H23.3451H23.3631H23.3811H23.3991H23.4172H23.4352H23.4532H23.4712H23.4892H23.5073H23.5253H23.5433H23.5613H23.5794H23.5974H23.6154H23.6334H23.6514H23.6695H23.6875H23.7055H23.7235H23.7416H23.7596H23.7776H23.7956H23.8137H23.8317H23.8497H23.8677H23.8857H23.9038H23.9218H23.9398H23.9578H23.9759H23.9939H24.0119H24.0299H24.0479H24.066H24.084H24.102H24.12H24.1381H24.1561H24.1741H24.1921H24.2101H24.2282H24.2462H24.2642H24.2822H24.3003H24.3183H24.3363H24.3543H24.3723H24.3904H24.4084H24.4264H24.4444H24.4625H24.4805H24.4985H24.5165H24.5346H24.5526H24.5706H24.5886H24.6066H24.6247H24.6427H24.6607H24.6787H24.6968H24.7148H24.7328H24.7508H24.7688H24.7869H24.8049H24.8229H24.8409H24.859H24.877H24.895H24.913H24.931H24.9491H24.9671H24.9851H25.0031H25.0212H25.0392H25.0572H25.0752H25.0932H25.1113H25.1293H25.1473H25.1653H25.1834H25.2014H25.2194H25.2374H25.2555H25.2735H25.2915H25.3095H25.3275H25.3456H25.3636H25.3816H25.3996H25.4177H25.4357H25.4537H25.4717H25.4897H25.5078H25.5258H25.5438H25.5618H25.5799H25.5979H25.6159H25.6339H25.6519H25.67H25.688H25.706H25.724H25.7421H25.7601H25.7781H25.7961H25.8141H25.8322H25.8502H25.8682H25.8862H25.9043H25.9223H25.9403H25.9583H25.9763H25.9944H26.0124H26.0304H26.0484H26.0665H26.0845H26.1025H26.1205H26.1386H26.1566H26.1746H26.1926H26.2106H26.2287H26.2467H26.2647H26.2827H26.3008H26.3188H26.3368H26.3548H26.3728H26.3909H26.4089H26.4269H26.4449H26.463H26.481H26.499H26.517H26.535H26.5531H26.5711H26.5891H26.6071H26.6252H26.6432H26.6612H26.6792H26.6972H26.7153H26.7333H26.7513H26.7693H26.7874H26.8054H26.8234H26.8414H26.8595H26.8775H26.8955H26.9135H26.9315H26.9496H26.9676H26.9856H27.0036H27.0217H27.0397H27.0577H27.0757H27.0937H27.1118H27.1298H27.1478H27.1658H27.1839H27.2019H27.2199H27.2379H27.2559H27.274H27.292H27.31H27.328H27.3461H27.3641H27.3821H27.4001H27.4181H27.4362H27.4542H27.4722H27.4902H27.5083H27.5263H27.5443H27.5623H27.5804H27.5984H27.6164H27.6344H27.6524H27.6705H27.6885H27.7065H27.7245H27.7426H27.7606H27.7786H27.7966H27.8146H27.8327H27.8507H27.8687H27.8867H27.9048H27.9228H27.9408H27.9588H27.9768H27.9949H28.0129H28.0309H28.0489H28.067H28.085H28.103H28.121H28.139H28.1571H28.1751H28.1931H28.2111H28.2292H28.2472H28.2652H28.2832H28.3013H28.3193H28.3373H28.3553H28.3733H28.3914H28.4094H28.4274H28.4454H28.4635H28.4815H28.4995H28.5175H28.5355H28.5536H28.5716H28.5896H28.6076H28.6257H28.6437H28.6617H28.6797H28.6977H28.7158H28.7338H28.7518H28.7698H28.7879H28.8059H28.8239H28.8419H28.8599H28.878H28.896H28.914H28.932H28.9501H28.9681H28.9861H29.0041H29.0222H29.0402H29.0582H29.0762H29.0942H29.1123H29.1303H29.1483H29.1663H29.1844H29.2024H29.2204H29.2384H29.2564H29.2745H29.2925H29.3105H29.3285H29.3466H29.3646H29.3826H29.4006H29.4186H29.4367H29.4547H29.4727H29.4907H29.5088H29.5268H29.5448H29.5628H29.5808H29.5989H29.6169H29.6349H29.6529H29.671H29.689H29.707H29.725H29.7431H29.7611H29.7791H29.7971H29.8151H29.8332H29.8512H29.8692H29.8872H29.9053H29.9233H29.9413H29.9593H29.9773H29.9954H30.0134H30.0314H30.0494H30.0675H30.0855H30.1035H30.1215H30.1395H30.1576H30.1756H30.1936H30.2116H30.2297H30.2477H30.2657H30.2837H30.3017H30.3198H30.3378H30.3558H30.3738H30.3919H30.4099H30.4279H30.4459H30.464H30.482H30.5H30.518H30.536H30.5541H30.5721H30.5901H30.6081H30.6262H30.6442H30.6622H30.6802H30.6982H30.7163H30.7343H30.7523H30.7703H30.7884H30.8037C31.8736 12.4926 32.9558 14.3765 34.0392 16.2623C34.4155 16.9174 34.792 17.5728 35.1681 18.2289C34.4347 19.4978 33.7013 20.7717 32.9685 22.0447L32.9675 22.0464L32.9665 22.0482C32.2381 23.3134 31.5103 24.5778 30.7826 25.8368H30.7767H30.7678H30.7589H30.75H30.7412H30.7323H30.7234H30.7145H30.7056H30.6967H30.6878H30.6789H30.6701H30.6612H30.6523H30.6434H30.6345H30.6256H30.6167H30.6078H30.5989H30.59H30.5811H30.5722H30.5633H30.5545H30.5456H30.5367H30.5278H30.5189H30.51H30.5011H30.4922H30.4833H30.4744H30.4655H30.4566H30.4477H30.4388H30.4299H30.421H30.4121H30.4032H30.3943H30.3854H30.3765H30.3676H30.3587H30.3497H30.3408H30.3319H30.323H30.3141H30.3052H30.2963H30.2874H30.2785H30.2696H30.2607H30.2518H30.2429H30.234H30.225H30.2161H30.2072H30.1983H30.1894H30.1805H30.1716H30.1627H30.1537H30.1448H30.1359H30.127H30.1181H30.1092H30.1003H30.0913H30.0824H30.0735H30.0646H30.0557H30.0468H30.0379H30.0289H30.02H30.0111H30.0022H29.9933H29.9843H29.9754H29.9665H29.9576H29.9487H29.9397H29.9308H29.9219H29.913H29.9041H29.8951H29.8862H29.8773H29.8684H29.8594H29.8505H29.8416H29.8327H29.8237H29.8148H29.8059H29.797H29.7881H29.7791H29.7702H29.7613H29.7523H29.7434H29.7345H29.7256H29.7166H29.7077H29.6988H29.6899H29.6809H29.672H29.6631H29.6541H29.6452H29.6363H29.6274H29.6184H29.6095H29.6006H29.5916H29.5827H29.5738H29.5648H29.5559H29.547H29.538H29.5291H29.5202H29.5113H29.5023H29.4934H29.4845H29.4755H29.4666H29.4577H29.4487H29.4398H29.4309H29.4219H29.413H29.404H29.3951H29.3862H29.3772H29.3683H29.3594H29.3504H29.3415H29.3326H29.3236H29.3147H29.3058H29.2968H29.2879H29.279H29.27H29.2611H29.2521H29.2432H29.2343H29.2253H29.2164H29.2075H29.1985H29.1896H29.1806H29.1717H29.1628H29.1538H29.1449H29.136H29.127H29.1181H29.1091H29.1002H29.0913H29.0823H29.0734H29.0644H29.0555H29.0466H29.0376H29.0287H29.0197H29.0108H29.0019H28.9929H28.984H28.975H28.9661H28.9572H28.9482H28.9393H28.9303H28.9214H28.9125H28.9035H28.8946H28.8856H28.8767H28.8678H28.8588H28.8499H28.8409H28.832H28.8231H28.8141H28.8052H28.7962H28.7873H28.7784H28.7694H28.7605H28.7515H28.7426H28.7336H28.7247H28.7158H28.7068H28.6979H28.6889H28.68H28.6711H28.6621H28.6532H28.6442H28.6353H28.6264H28.6174H28.6085H28.5995H28.5906H28.5817H28.5727H28.5638H28.5548H28.5459H28.537H28.528H28.5191H28.5101H28.5012H28.4923H28.4833H28.4744H28.4654H28.4565H28.4476H28.4386H28.4297H28.4207H28.4118H28.4029H28.3939H28.385H28.376H28.3671H28.3582H28.3492H28.3403H28.3313H28.3224H28.3135H28.3045H28.2956H28.2866H28.2777H28.2688H28.2598H28.2509H28.242H28.233H28.2241H28.2151H28.2062H28.1973H28.1883H28.1794H28.1705H28.1615H28.1526H28.1436H28.1347H28.1258H28.1168H28.1079H28.099H28.09H28.0811H28.0722H28.0632H28.0543H28.0454H28.0364H28.0275H28.0186H28.0096H28.0007H27.9917H27.9828H27.9739H27.9649H27.956H27.9471H27.9382H27.9292H27.9203H27.9114H27.9024H27.8935H27.8846H27.8756H27.8667H27.8578H27.8488H27.8399H27.831H27.822H27.8131H27.8042H27.7953H27.7863H27.7774H27.7685H27.7595H27.7506H27.7417H27.7328H27.7238H27.7149H27.706H27.697H27.6881H27.6792H27.6703H27.6613H27.6524H27.6435H27.6346H27.6256H27.6167H27.6078H27.5989H27.5899H27.581H27.5721H27.5632H27.5542H27.5453H27.5364H27.5275H27.5186H27.5096H27.5007H27.4918H27.4829H27.474H27.465H27.4561H27.4472H27.4383H27.4294H27.4204H27.4115H27.4026H27.3937H27.3848H27.3758H27.3669H27.358H27.3491H27.3402H27.3313H27.3224H27.3134H27.3045H27.2956H27.2867H27.2778H27.2689H27.26H27.251H27.2421H27.2332H27.2243H27.2154H27.2065H27.1976H27.1887H27.1798H27.1709H27.1619H27.153H27.1441H27.1352H27.1263H27.1174H27.1085H27.0996H27.0907H27.0818H27.0729H27.064H27.0551H27.0462H27.0373H27.0284H27.0195H27.0106H27.0017H26.9928H26.9839H26.975H26.9661H26.9572H26.9483H26.9394H26.9305H26.9216H26.9127H26.9038H26.8949H26.886H26.8771H26.8682H26.8593H26.8504H26.8415H26.8326H26.8237H26.8148H26.8059H26.797H26.7882H26.7793H26.7704H26.7615H26.7526H26.7437H26.7348H26.7259H26.717H26.7082H26.6993H26.6904H26.6815H26.6726H26.6637H26.6548H26.646H26.6371H26.6282H26.6193H26.6104H26.6016H26.5927H26.5838H26.5749H26.566H26.5572H26.5483H26.5394H26.5305H26.5217H26.5128H26.5039H26.495H26.4862H26.4773H26.4684H26.4595H26.4507H26.4418H26.4329H26.4239H26.4149H26.4059H26.3969H26.3879H26.3789H26.3698H26.3608H26.3518H26.3428H26.3338H26.3248H26.3158H26.3068H26.2978H26.2887H26.2797H26.2707H26.2617H26.2527H26.2437H26.2347H26.2257H26.2166H26.2076H26.1986H26.1896H26.1806H26.1716H26.1626H26.1536H26.1446H26.1355H26.1265H26.1175H26.1085H26.0995H26.0905H26.0815H26.0725H26.0634H26.0544H26.0454H26.0364H26.0274H26.0184H26.0094H26.0004H25.9913H25.9823H25.9733H25.9643H25.9553H25.9463H25.9373H25.9283H25.9192H25.9102H25.9012H25.8922H25.8832H25.8742H25.8652H25.8562H25.8471H25.8381H25.8291H25.8201H25.8111H25.8021H25.7931H25.784H25.775H25.766H25.757H25.748H25.739H25.73H25.7209H25.7119H25.7029H25.6939H25.6849H25.6759H25.6669H25.6578H25.6488H25.6398H25.6308H25.6218H25.6128H25.6037H25.5947H25.5857H25.5767H25.5677H25.5587H25.5496H25.5406H25.5316H25.5226H25.5136H25.5046H25.4955H25.4865H25.4775H25.4685H25.4595H25.4505H25.4414H25.4324H25.4234H25.4144H25.4054H25.3964H25.3873H25.3783H25.3693H25.3603H25.3513H25.3422H25.3332H25.3242H25.3152H25.3062H25.2971H25.2881H25.2791H25.2701H25.2611H25.252H25.243H25.234H25.225H25.216H25.2069H25.1979H25.1889H25.1799H25.1709H25.1618H25.1528H25.1438H25.1348H25.1257H25.1167H25.1077H25.0987H25.0897H25.0806H25.0716H25.0626H25.0536H25.0445H25.0355H25.0265H25.0175H25.0084H24.9994H24.9904H24.9814H24.9723H24.9633H24.9543H24.9453H24.9362H24.9272H24.9182H24.9092H24.9001H24.8911H24.8821H24.873H24.864H24.855H24.846H24.8369H24.8279H24.8189H24.8099H24.8008H24.7918H24.7828H24.7737H24.7647H24.7557H24.7466H24.7376H24.7286H24.7196H24.7105H24.7015H24.6925H24.6834H24.6744H24.6654H24.6563H24.6473H24.6383H24.6292H24.6202H24.6112H24.6021H24.5931H24.5841H24.575H24.566H24.557H24.5479H24.5389H24.5299H24.5208H24.5118H24.5028H24.4937H24.4847H24.4756H24.4666H24.4576H24.4485H24.4395H24.4305H24.4214H24.4124H24.4034H24.3943H24.3853H24.3762H24.3672H24.3582H24.3491H24.3401H24.331H24.322H24.313H24.3039H24.2949H24.2858H24.2768H24.2677H24.2587H24.2497H24.2406H24.2316H24.2225H24.2135H24.2044H24.1954H24.1864H24.1773H24.1683H24.1592H24.1502H24.1411H24.1321H24.123H24.114H24.1049H24.0959H24.0868H24.0778H24.0688H24.0597H24.0507H24.0416H24.0326H24.0235H24.0145H24.0054H23.9964H23.9873H23.9783H23.9692H23.9602H23.9511H23.9421H23.933H23.9239H23.9149H23.9058H23.8968H23.8877H23.8787H23.8696H23.8606H23.8515H23.8425H23.8334H23.8243H23.8153H23.8062H23.7972H23.7881H23.7791H23.77H23.7609H23.7519H23.7428H23.7338H23.7247H23.7157H23.7066H23.6975H23.6885H23.6794H23.6703H23.6613H23.6522H23.6432H23.6341H23.625H23.616H23.6069H23.5978H23.5888H23.5797H23.5707H23.5616H23.5525H23.5435H23.5344H23.5253H23.5163H23.5072H23.4981H23.4891H23.48H23.4709H23.4618H23.4528H23.4437H23.4346H23.4256H23.4165H23.4074H23.3984H23.3893H23.3802H23.3711H23.3621H23.353H23.3439H23.3348H23.3258H23.3167H23.3076H23.2985H23.2895H23.2804H23.2713H23.2622H23.2532H23.2441H23.235H23.2259H23.2168H23.2078H23.1987H23.1896H23.1805H23.1714H23.1624H23.1533H23.1442H23.1351H23.126H23.1169H23.1079H23.0988H23.0897H23.0806H23.0715H23.0624H23.0533H23.0443H23.0352H23.0261H23.017H23.0079H22.9988H22.9897H22.9806H22.9716H22.9625H22.9534H22.9443H22.9352H22.9261H22.917H22.9079H22.8988H22.8897H22.8806H22.8715H22.8624H22.8533H22.8443H22.8352H22.8261H22.817H22.8079H22.7988H22.7897H22.7806H22.7715H22.7624H22.7533H22.7442H22.7351H22.726H22.7169H22.7078H22.6987H22.6896H22.6805H22.6714H22.6622H22.6531H22.644H22.6349H22.6258H22.6167H22.6076H22.5985H22.5894H22.5803H22.5712H22.5621H22.553H22.5438H22.5347H22.5256H22.5165H22.5074H22.4983H22.4892H22.4801H22.471H22.4618H22.4527H22.4436H22.4345H22.4254H22.4163H22.4071H22.398H22.3889H22.3798H22.3707H22.3615H22.3524H22.3433H22.3342H22.3251H22.3159H22.3068H22.2977H22.2886H22.2794H22.2703H22.2612H22.2521H22.2429H22.2338H22.2247H22.2156H22.2064H22.1973H22.1882H22.179H22.1699H22.1608H22.1517H22.1425H22.1334H22.1243H22.1151H22.106H22.0969H22.0877H22.0786H22.0695H22.0603H22.0512H22.042ZM21.7826 10.5987C21.7826 10.5987 21.7844 10.5985 21.7883 10.5985C21.7847 10.5988 21.7827 10.5988 21.7826 10.5987ZM35.2732 18.4135C35.2732 18.4135 35.2727 18.4125 35.2718 18.4104C35.2728 18.4125 35.2733 18.4135 35.2732 18.4135ZM30.6519 26.0633C30.6518 26.0635 30.6518 26.0635 30.6519 26.0632L30.6519 26.0633ZM31.0102 25.8366C31.0125 25.8364 31.0137 25.8363 31.0137 25.8364L31.0102 25.8366ZM21.7855 25.8367C21.7827 25.8366 21.7814 25.8365 21.7815 25.8364L21.7855 25.8367ZM22.1698 26.07C22.1698 26.07 22.1693 26.0692 22.1683 26.0676C22.1693 26.0691 22.1698 26.0699 22.1698 26.07Z" stroke="#EE0011" stroke-opacity="0.898039" stroke-width="2"/>
<path d="M140.322 18.0164C140.322 14.9728 140.322 11.962 140.322 8.91845C140.322 8.82027 140.322 8.75482 140.322 8.65664C140.354 7.80576 140.517 7.6094 141.363 7.57667C142.696 7.54395 144.03 7.54394 145.396 7.54394C145.916 7.54394 146.404 7.57667 146.925 7.54394C147.868 7.47849 148.616 7.83849 149.137 8.59119C150.535 10.5548 150.991 12.7147 150.665 15.071C150.535 15.9873 149.852 16.5764 149.299 17.2309C149.137 17.4273 149.039 17.5909 149.267 17.7873C151.251 19.8491 151.316 22.2381 150.535 24.7907C150.21 25.8052 149.82 26.7543 149.137 27.5725C148.649 28.1288 148.096 28.4561 147.315 28.4233C145.428 28.3906 143.509 28.4233 141.623 28.4233C140.582 28.4233 140.387 28.227 140.387 27.147C140.322 24.1362 140.322 21.0599 140.322 18.0164ZM143.77 25.0525C144.713 25.0525 145.591 25.0525 146.469 25.0525C146.599 25.0525 146.795 24.8889 146.892 24.758C147.478 23.7762 147.673 22.7617 147.38 21.649C147.12 20.7327 146.697 19.8818 145.656 19.6854C145.038 19.5872 144.42 19.6527 143.77 19.6527C143.77 21.4526 143.77 23.2199 143.77 25.0525ZM143.77 16.2819C144.355 16.2819 144.875 16.2819 145.428 16.2819C145.916 16.2819 146.307 16.1182 146.632 15.7583C147.835 14.5147 147.803 12.4856 146.827 11.0784C146.762 11.0129 146.664 10.9148 146.599 10.9148C145.656 10.9148 144.745 10.9148 143.802 10.9148C143.77 12.7474 143.77 14.4492 143.77 16.2819Z" fill="white"/>
<path d="M113.162 16.3801C114.463 16.3801 115.699 16.3801 117 16.3801C117 16.1837 117 16.0201 117 15.8237C117 13.402 117 10.9802 117 8.55847C117 8.1003 117.162 7.83849 117.585 7.70758C118.366 7.4785 119.114 7.4785 119.895 7.70758C120.285 7.83849 120.448 8.06757 120.448 8.49301C120.448 14.8419 120.448 21.1908 120.448 27.5397C120.448 27.9325 120.285 28.1615 119.927 28.2924C119.147 28.5543 118.366 28.5543 117.553 28.3252C117.162 28.1943 116.967 27.9652 116.967 27.507C116.967 25.1507 116.967 22.7944 116.967 20.4708C116.967 20.2745 116.967 20.0781 116.967 19.8491C115.699 19.8491 114.43 19.8491 113.129 19.8491C113.129 20.0781 113.129 20.2745 113.129 20.5036C113.129 22.7944 113.129 25.0853 113.129 27.4088C113.129 28.1288 113.032 28.3252 112.348 28.3906C111.665 28.4561 110.95 28.3906 110.234 28.2924C109.876 28.2597 109.746 27.9652 109.746 27.6052C109.746 21.2236 109.746 14.8419 109.746 8.46029C109.746 8.1003 109.909 7.90394 110.202 7.77304C111.015 7.4785 111.828 7.4785 112.674 7.77304C113.097 7.90394 113.162 8.19848 113.162 8.59119C113.162 10.9802 113.162 13.402 113.162 15.791C113.162 15.9873 113.162 16.151 113.162 16.3801Z" fill="white"/>
<path d="M72.0477 24.1362C71.8851 25.2162 71.6899 26.2307 71.5273 27.2452C71.3972 27.9652 71.2996 28.1943 70.5515 28.2597C69.9335 28.3252 69.3155 28.227 68.73 28.0961C68.2746 27.9979 68.0794 27.6052 68.177 27.1143C68.5348 24.8562 68.8926 22.5981 69.2829 20.34C69.9335 16.4128 70.584 12.4857 71.2346 8.52577C71.2996 8.10032 71.4948 7.87124 71.8851 7.77306C73.1862 7.4458 74.5198 7.47852 75.8208 7.80579C76.1461 7.87124 76.3413 8.0676 76.4063 8.46031C76.7316 10.5548 77.0894 12.6166 77.4147 14.711C77.7725 16.9692 78.1628 19.2273 78.5206 21.4527C78.8133 23.3508 79.1061 25.2162 79.4313 27.1143C79.5289 27.6379 79.3012 27.9652 78.8458 28.1616C78.1628 28.4888 77.4797 28.5216 76.7641 28.2925C76.4063 28.1943 76.1786 27.9652 76.1136 27.5398C75.9835 26.558 75.7883 25.5762 75.6257 24.5944C75.5606 24.2344 75.463 24.1362 75.1053 24.1362C74.0969 24.169 73.0886 24.1362 72.0477 24.1362ZM73.8367 13.8929C73.8042 13.8929 73.7716 13.8929 73.7391 13.8929C73.3813 16.151 72.991 18.4091 72.6007 20.7C73.4138 20.7 74.162 20.7 74.9101 20.7C74.5523 18.4091 74.1945 16.151 73.8367 13.8929Z" fill="white"/>
<path d="M124.579 15.2019C124.579 12.9438 124.579 10.7184 124.579 8.4603C124.579 7.9694 124.774 7.64214 125.229 7.60941C125.945 7.57669 126.628 7.57669 127.343 7.60941C127.799 7.64214 127.994 7.9694 127.994 8.4603C127.961 12.5838 127.961 16.7073 127.994 20.8308C127.994 21.5836 128.124 22.369 128.319 23.1217C128.417 23.5471 128.677 23.9726 128.937 24.3326C129.816 25.4453 131.149 25.3798 131.962 24.2344C132.548 23.4162 132.775 22.4672 132.775 21.4526C132.775 17.1655 132.775 12.9111 132.775 8.62393C132.775 7.9694 132.873 7.70759 133.524 7.64214C134.207 7.57668 134.922 7.60941 135.638 7.67487C136.028 7.70759 136.191 8.00213 136.191 8.42757C136.158 13.0093 136.223 17.6237 136.093 22.2054C136.028 24.4307 135.085 26.3943 133.133 27.6379C130.368 29.3724 126.953 28.227 125.457 25.1507C124.806 23.8089 124.611 22.369 124.611 20.8636C124.611 18.9982 124.579 17.1 124.579 15.2019Z" fill="white"/>
<path d="M99.3052 21.5181C99.3052 21.7145 99.3052 21.8781 99.3052 22.0744C99.3052 23.8744 99.3052 25.6743 99.3052 27.4743C99.3052 27.9324 99.1101 28.1615 98.7197 28.2924C97.9716 28.5215 97.2235 28.5215 96.4429 28.2924C96.0525 28.1615 95.8574 27.9324 95.8574 27.4743C95.8574 21.1581 95.8574 14.8092 95.8574 8.49302C95.8574 8.03485 96.02 7.80576 96.4429 7.67486C97.191 7.44578 97.9066 7.44577 98.6547 7.64213C99.1101 7.77304 99.3052 8.03485 99.3052 8.52574C99.2727 10.3257 99.3052 12.0929 99.3052 13.8929C99.3052 14.0892 99.3052 14.2529 99.3052 14.4492C99.3377 14.4492 99.3703 14.4819 99.4028 14.4819C99.5004 14.351 99.5654 14.2201 99.663 14.0565C100.769 12.0602 101.875 10.0312 102.948 8.03485C103.176 7.6094 103.469 7.41305 103.924 7.54395C104.477 7.67486 105.062 7.83849 105.583 8.1003C106.299 8.46029 106.364 8.91846 106.006 9.60571C104.575 12.2565 103.143 14.9401 101.712 17.5909C101.55 17.8855 101.55 18.1146 101.712 18.4091C103.176 21.0599 104.607 23.7108 106.038 26.3616C106.396 26.9834 106.364 27.3761 105.746 27.7361C105.193 28.0634 104.542 28.2597 103.924 28.4234C103.534 28.5543 103.208 28.3252 103.013 27.9325C101.94 25.9362 100.834 23.9398 99.7606 21.9435C99.663 21.7799 99.598 21.649 99.5004 21.4854C99.3703 21.5181 99.3377 21.5181 99.3052 21.5181Z" fill="white"/>
<path d="M87.4004 7.51126C89.9049 7.51126 91.4988 8.72213 92.0517 11.0784C92.2469 11.8639 92.1168 12.1257 91.3361 12.2566C90.7181 12.3548 90.1001 12.2893 89.4821 12.2566C89.0918 12.2239 88.7665 12.0275 88.7015 11.5693C88.6689 11.4057 88.4738 11.2093 88.3111 11.1112C87.6931 10.7512 87.0751 10.8166 86.4896 11.1766C85.9367 11.5039 85.709 12.0602 85.774 12.7147C85.8391 13.5329 86.1318 14.2856 86.6848 14.842C87.5955 15.8237 88.6039 16.7728 89.5472 17.7219C90.7507 18.9327 91.7265 20.2745 92.1493 21.9763C92.995 25.3471 90.523 28.5216 87.1076 28.4234C84.6356 28.3579 82.4238 26.0998 82.3587 23.6453C82.3587 23.1872 82.5213 22.9581 82.9442 22.8599C83.6923 22.6636 84.4079 22.6636 85.156 22.8599C85.4813 22.9581 85.6764 23.1544 85.7415 23.5144C85.9367 24.529 86.7173 25.1835 87.498 25.0198C88.6039 24.7908 89.2219 23.8417 88.8641 22.7945C88.6689 22.1727 88.3437 21.5181 87.9208 21.0272C87.0751 20.0454 86.0993 19.1618 85.156 18.2455C83.9525 17.0674 82.9117 15.7583 82.5864 14.0565C82.1635 11.8966 82.4563 9.93301 84.2453 8.4276C85.1235 7.70762 86.2619 7.51126 87.4004 7.51126Z" fill="white"/>
<path d="M60.8584 10.9802C60.8584 11.2421 60.8584 11.4384 60.8584 11.6675C60.8584 16.9037 60.8584 22.1399 60.8584 27.3761C60.8584 28.0634 60.7608 28.2597 60.0777 28.3579C59.4923 28.4234 58.8742 28.4234 58.2562 28.3579C57.5732 28.2597 57.4756 28.0634 57.4756 27.3761C57.4756 22.1399 57.4756 16.9364 57.4756 11.7002C57.4756 11.4711 57.4756 11.2421 57.4756 10.9802C57.2479 10.9802 57.0527 10.9475 56.8901 10.9475C55.7517 10.9475 54.6132 10.9148 53.5073 10.9148C53.1495 10.9148 52.8242 10.7839 52.8242 10.4239C52.7592 9.63846 52.7592 8.85303 52.8242 8.0676C52.8568 7.70761 53.1495 7.54398 53.5398 7.54398C57.313 7.54398 61.0861 7.54398 64.8917 7.54398C65.2821 7.54398 65.5097 7.70761 65.6398 8.0676C65.8675 8.8203 65.9001 9.57301 65.6724 10.3257C65.5423 10.7512 65.3146 10.9148 64.8917 10.9148C63.7858 10.9148 62.6474 10.9148 61.5415 10.9475C61.2487 10.9475 61.0861 10.9475 60.8584 10.9802Z" fill="white"/>
</svg>
